<svg width="2046" height="1390" viewBox="0 0 2046 1390" fill="none" xmlns="http://www.w3.org/2000/svg">
<path d="M826.241 1235.11C864.479 1117.68 927.33 918.65 945.22 834.791C945.295 834.441 945.505 834.156 945.81 833.967C1023.77 785.478 1108.09 759.1 1136.45 753.836C1136.8 753.772 1137.13 753.86 1137.42 754.06C1209.66 804.558 1254.35 835.422 1281.97 861.697C1352.22 928.519 1365.59 1056.65 1364.36 1140.05C1364.36 1140.52 1364.1 1140.94 1363.69 1141.17L1334.73 1157.17C1334.02 1157.57 1333.13 1157.23 1332.84 1156.47C1309.2 1092.93 1265.11 1042.78 1236.27 951.654C1236.29 952.392 1235.66 953.041 1234.87 953.022C1156.49 951.019 1153.35 946.505 1082.62 924.892C1040.41 1059.52 919.875 1192.36 860.084 1249.5C859.707 1249.86 859.172 1249.95 858.69 1249.75L827.001 1236.72C826.363 1236.46 826.027 1235.77 826.241 1235.11Z" fill="black"/>
<path d="M1039.36 457.272C1045.96 447.372 1117.72 420.981 1091.12 327.675C1114.3 317.343 1118.15 292.695 1096.84 292.704C1073.64 291.66 1066.89 273.261 1065.47 261.24C1064.56 245.039 1058.27 230.488 1055.72 228.012" stroke="black" stroke-width="5" stroke-linecap="round"/>
<path d="M1057.29 304.475C1060.35 303.111 1061.17 298.287 1059.12 293.699C1057.08 289.111 1052.94 286.498 1049.88 287.861C1046.82 289.225 1046 294.049 1048.05 298.637C1050.09 303.225 1054.23 305.838 1057.29 304.475Z" fill="black"/>
<path d="M1030.25 282.725C1032.2 276.844 1039.38 266.256 1052.46 270.945" stroke="black" stroke-width="5" stroke-linecap="round"/>
<path d="M1040.94 374.79C1053.01 382.416 1062.19 381.936 1074.04 367.984" stroke="black" stroke-width="5" stroke-linecap="round"/>
<path d="M948.013 325.166C948.029 329.516 950.413 338.311 959.812 338.695" stroke="black" stroke-width="5" stroke-linecap="round"/>
<path d="M849.894 325.552C863.495 378.745 908.545 402.775 941.947 421.814C958.276 400.082 981.048 355.79 966.005 359.06C950.194 362.494 917.043 330.303 925.475 311.913C935.367 290.337 959.889 304.819 970.114 319.65L972.81 290.81C961.757 276.589 947.44 249.31 978.605 253.961C1009.77 258.611 1043.02 238.343 1055.75 227.629C1075.03 193.838 1097.62 125.317 1033.72 121.554C980.569 118.424 938.266 172.742 916.257 214.188C890.516 218.687 831.351 253.025 849.894 325.552Z" fill="black"/>
<path d="M942.032 417.792C958.151 425.51 968.075 433.511 977.315 455.292" stroke="black" stroke-width="5" stroke-linecap="round"/>
<path d="M957.873 611.837C962.868 647.023 965.977 740.619 939.129 836.484C938.79 837.696 940.162 838.695 941.193 837.973C969.923 817.852 1044.98 775.683 1141.55 750.732C1142.19 750.565 1142.62 749.979 1142.55 749.321C1136.27 696.197 1132.88 584.523 1163.55 555.313C1163.71 555.154 1163.91 555.051 1164.13 554.999C1227.37 540.402 1361.54 493.899 1400.67 421.254C1400.72 421.146 1400.76 421.035 1400.78 420.915C1403.6 407.782 1405.52 380.963 1391.28 376.345C1391 376.254 1390.7 376.27 1390.42 376.381C1297.03 414.146 1192.94 445.427 1059.16 469.152" stroke="black" stroke-width="5" stroke-linecap="round"/>
<path d="M957.873 656.719C893.983 726.417 834.531 752.961 789.211 772.761C757.548 788.903 688.888 800.482 719.606 750.442C851.61 585.701 880.651 557.056 911.672 528.676C929.488 512.376 937.413 502.275 982.294 490.395" stroke="black" stroke-width="5" stroke-linecap="round"/>
<path d="M773.067 1285.06C770.427 1267.9 821.689 1242.82 830.49 1238.2L857.551 1248.76C855.439 1261.96 848.75 1269.66 845.671 1271.86L773.067 1285.06Z" stroke="black" stroke-width="5"/>
<path d="M1347.28 1179.45C1336.72 1177.34 1336.29 1162.29 1337.38 1155.03L1361.14 1143.15C1368.4 1145.13 1387.81 1150.28 1407.34 1155.03C1426.88 1159.78 1424.28 1166.25 1420.54 1168.89L1347.28 1179.45Z" stroke="black" stroke-width="5"/>
<path d="M1210.17 1307.5C1210.17 1353.07 1173.23 1390 1127.66 1390C1082.1 1390 1045.16 1353.07 1045.16 1307.5C1045.16 1261.93 1082.1 1225 1127.66 1225C1173.23 1225 1210.17 1261.93 1210.17 1307.5Z" fill="black"/>
<path d="M645.023 1317.4L1608.65 1140.51" stroke="black" stroke-width="5" stroke-linecap="round"/>
<path d="M1491.17 207.906H1435.72C1430.26 207.906 1425.82 212.339 1425.82 217.807V258.728C1425.82 264.195 1430.26 268.628 1435.72 268.628H1491.17C1496.63 268.628 1501.07 264.195 1501.07 258.728V217.807C1501.07 212.339 1496.63 207.906 1491.17 207.906Z" fill="black"/>
<path d="M1584.89 192.065H1547.93C1542.46 192.065 1538.03 196.498 1538.03 201.966V254.767C1538.03 260.235 1542.46 264.668 1547.93 264.668H1584.89C1590.36 264.668 1594.79 260.235 1594.79 254.767V201.966C1594.79 196.498 1590.36 192.065 1584.89 192.065Z" stroke="#A0A0A0" stroke-width="5"/>
<path d="M1678.61 159.064H1642.97C1637.5 159.064 1633.07 163.497 1633.07 168.965V254.767C1633.07 260.235 1637.5 264.667 1642.97 264.667H1678.61C1684.08 264.667 1688.51 260.235 1688.51 254.767V168.965C1688.51 163.497 1684.08 159.064 1678.61 159.064Z" stroke="#A0A0A0" stroke-width="5"/>
<path d="M1774.97 125.404H1738.01C1730.72 125.404 1724.81 131.314 1724.81 138.605V254.768C1724.81 262.058 1730.72 267.968 1738.01 267.968H1774.97C1782.26 267.968 1788.17 262.058 1788.17 254.768V138.605C1788.17 131.314 1782.26 125.404 1774.97 125.404Z" fill="#A0A0A0"/>
<path d="M1872.66 186.785H1837.02C1831.55 186.785 1827.12 191.218 1827.12 196.685V254.767C1827.12 260.235 1831.55 264.667 1837.02 264.667H1872.66C1878.13 264.667 1882.56 260.235 1882.56 254.767V196.685C1882.56 191.218 1878.13 186.785 1872.66 186.785Z" stroke="#A0A0A0" stroke-width="5"/>
<path d="M1971.66 219.786H1934.7C1929.23 219.786 1924.8 224.219 1924.8 229.686V254.767C1924.8 260.235 1929.23 264.667 1934.7 264.667H1971.66C1977.13 264.667 1981.56 260.235 1981.56 254.767V229.686C1981.56 224.219 1977.13 219.786 1971.66 219.786Z" stroke="#A0A0A0" stroke-width="5"/>
<path d="M1757.17 107.261C1756.11 108.476 1754.24 108.476 1753.18 107.261L1741.8 94.1319C1740.32 92.4222 1741.54 89.7627 1743.8 89.7627H1766.55C1768.81 89.7627 1770.02 92.4222 1768.55 94.1319L1757.17 107.261Z" fill="#A0A0A0"/>
<path d="M1821.18 0H1693.13C1685.84 0 1679.93 5.91001 1679.93 13.2004V84.4824C1679.93 91.7728 1685.84 97.6828 1693.13 97.6828H1821.18C1828.47 97.6828 1834.38 91.7728 1834.38 84.4824V13.2004C1834.38 5.91001 1828.47 0 1821.18 0Z" fill="#A0A0A0"/>
<path d="M1811.94 44.8809H1727.45C1724.54 44.8809 1722.17 47.2449 1722.17 50.161C1722.17 53.0772 1724.54 55.4412 1727.45 55.4412H1811.94C1814.85 55.4412 1817.22 53.0772 1817.22 50.161C1817.22 47.2449 1814.85 44.8809 1811.94 44.8809Z" fill="white"/>
<path d="M1706.33 50.1613C1706.33 47.9742 1704.56 46.2012 1702.37 46.2012C1700.19 46.2012 1698.41 47.9742 1698.41 50.1613C1698.41 52.3484 1700.19 54.1214 1702.37 54.1214C1704.56 54.1214 1706.33 52.3484 1706.33 50.1613Z" stroke="white" stroke-width="2"/>
<path d="M1761.77 69.9619H1727.45C1724.54 69.9619 1722.17 72.3259 1722.17 75.2421C1722.17 78.1582 1724.54 80.5222 1727.45 80.5222H1761.77C1764.69 80.5222 1767.05 78.1582 1767.05 75.2421C1767.05 72.3259 1764.69 69.9619 1761.77 69.9619Z" fill="white"/>
<path d="M1736.69 18.4805H1702.37C1699.46 18.4805 1697.09 20.8445 1697.09 23.7606C1697.09 26.6768 1699.46 29.0408 1702.37 29.0408H1736.69C1739.61 29.0408 1741.97 26.6768 1741.97 23.7606C1741.97 20.8445 1739.61 18.4805 1736.69 18.4805Z" fill="white"/>
<path d="M1707.65 75.2421C1707.65 72.3259 1705.29 69.9619 1702.37 69.9619C1699.46 69.9619 1697.09 72.3259 1697.09 75.2421C1697.09 78.1582 1699.46 80.5222 1702.37 80.5222C1705.29 80.5222 1707.65 78.1582 1707.65 75.2421Z" fill="white"/>
<path d="M262.16 1022.98C282.906 1012.32 306.57 1008.72 329.547 1012.76C352.522 1016.79 373.548 1028.23 389.418 1045.33C405.289 1062.43 415.133 1084.24 417.449 1107.45C419.765 1130.67 414.427 1154 402.248 1173.89C390.069 1193.79 371.718 1209.16 349.991 1217.65C328.266 1226.15 304.359 1227.3 281.914 1220.95C259.47 1214.59 239.721 1201.07 225.677 1182.44C211.634 1163.81 204.068 1141.1 204.131 1117.78L311.054 1118.07L262.16 1022.98Z" stroke="#A0A0A0" stroke-width="5"/>
<path d="M184.33 1106.19C184.33 1086.88 189.691 1067.95 199.815 1051.51C209.94 1035.07 224.432 1021.76 241.674 1013.07L288.613 1106.19H184.33Z" fill="#A0A0A0"/>
<path d="M1510.73 375.027C1512.23 378.532 1512.79 386.277 1504.14 390.973C1503.51 391.322 1502.81 391.653 1502.07 391.965C1491.26 396.481 1488.57 389.055 1488.57 384.778V380.421" stroke="black" stroke-width="5" stroke-linecap="round"/>
<path d="M1509.33 364.248C1512.23 366 1516.21 370.447 1510.73 375.026C1510.32 375.368 1509.86 375.71 1509.33 376.053C1503.01 380.218 1494.02 380.764 1488.57 380.42C1487.56 380.356 1486.69 380.264 1485.97 380.158C1483.02 379.336 1478.28 376.142 1482.85 369.944" stroke="black" stroke-width="5" stroke-linecap="round"/>
<path d="M1507.26 351.418C1510.2 352.102 1515.26 354.805 1511.93 360.143C1508.6 365.48 1491.85 368.868 1483.89 369.895C1483.55 369.929 1483.21 369.946 1482.85 369.945C1479.71 369.933 1476.62 368.409 1476.62 364.249C1476.62 358.371 1484.24 356.379 1485.97 356.037" stroke="black" stroke-width="5" stroke-linecap="round"/>
<path d="M1489.85 333.97C1492.79 335.167 1494.59 339.511 1487.52 343.206C1480.46 346.901 1482.16 351.931 1483.89 353.984C1486.67 356.379 1495.63 358.192 1509.33 346.286C1523.05 334.379 1501.54 326.954 1488.57 324.729" stroke="black" stroke-width="5" stroke-linecap="round"/>
<path d="M1459.49 346.285C1465.37 341.666 1476.83 335.199 1475.59 346.285C1474.34 357.371 1466.42 362.195 1462.6 363.222" stroke="black" stroke-width="5" stroke-linecap="round"/>
<path d="M1459.49 390.731C1462.93 387.767 1468.8 378.073 1464.66 363.01" stroke="black" stroke-width="5" stroke-linecap="round"/>
<path d="M1462.01 342.684L1455.53 307.568" stroke="black" stroke-width="5" stroke-linecap="round"/>
<path d="M1485.23 301.629L1489.65 337.525" stroke="black" stroke-width="5" stroke-linecap="round"/>
<path d="M1495.39 393.245C1495.39 403.047 1500.09 415.945 1489.65 419.041C1476.91 422.82 1475.56 411.302 1472.96 399.436L1466.18 363.837" stroke="black" stroke-width="5" stroke-linecap="round"/>
<path d="M1458.17 329.35C1450.91 330.67 1433.88 338.062 1423.84 357.07C1413.81 376.079 1404.27 382.151 1400.74 382.811" stroke="black" stroke-width="5" stroke-linecap="round"/>
<path d="M1402.72 415.812C1421.2 417.792 1459.35 417 1472.03 403.271" stroke="black" stroke-width="5" stroke-linecap="round"/>
<path d="M1458.83 306.909C1493.82 306.909 1522.19 278.541 1522.19 243.547C1522.19 208.554 1493.82 180.186 1458.83 180.186C1423.83 180.186 1395.46 208.554 1395.46 243.547C1395.46 278.541 1423.83 306.909 1458.83 306.909Z" stroke="black" stroke-width="5"/>
<path d="M2042.86 366.374C2017.54 371.568 2029.41 406.43 2010.87 415.706C1988.72 426.78 1981.09 364.435 1983.96 337.972C1984.79 326.369 1998.3 321.209 2000.12 337.972C2002.06 355.779 1979.96 424.829 1954.65 398.184L1937.75 378.623C1933.05 372.834 1923.8 364.791 1915.97 378.623C1908.14 392.453 1895.67 387.883 1890.41 383.868L1873.9 371.852" stroke="#A0A0A0" stroke-width="5" stroke-linecap="round"/>
<path d="M1885.74 318.593L1754.29 296.327C1753 296.107 1752.2 297.725 1753.19 298.609L1814.07 353.442C1814.18 353.53 1814.27 353.602 1814.4 353.65C1819.79 355.768 1840.46 347.624 1851.47 342.697C1852.21 342.365 1853.07 342.771 1853.29 343.553C1855.83 352.431 1858.89 360.639 1860.46 364.552C1860.7 365.127 1861.33 365.446 1861.75 364.988C1864.7 361.74 1865.11 345.211 1864.9 335.724C1864.88 335.046 1865.37 334.472 1866.04 334.342C1874.14 332.761 1885.08 325.653 1889.74 322.136" stroke="#A0A0A0" stroke-width="5" stroke-linecap="round"/>
<path d="M1852.78 341.768C1838.76 335.314 1803.29 319.152 1773.58 306.127" stroke="#A0A0A0" stroke-width="5" stroke-linecap="round"/>
<path d="M1860.7 365.53L1834.3 349.689" stroke="#A0A0A0" stroke-width="5" stroke-linecap="round"/>
<path d="M1855.42 328.568L1819.78 318.008" stroke="#A0A0A0" stroke-width="5" stroke-linecap="round"/>
<path d="M964.115 496.213C954.656 485.213 941.411 462.024 964.115 457.272C992.496 451.331 1056.52 452.651 1059.16 468.492" stroke="black" stroke-width="5" stroke-linecap="round"/>
<path d="M660.097 843.451C665.23 846.225 680.708 847.283 701.548 829.308C722.389 811.333 726.947 795.309 726.621 789.543" stroke="black" stroke-width="5" stroke-linecap="round"/>
<path d="M634.307 843.013C633.724 847.974 637.018 855.58 654.861 846.32L660.095 843.45L669.198 838.459" stroke="black" stroke-width="5" stroke-linecap="round"/>
<path d="M629.662 827.645C625.469 830.106 618.715 836.464 625.238 842.205C627.206 843.936 630.46 843.984 634.307 843.012C643.208 840.762 655.281 833.047 661.921 828.093" stroke="black" stroke-width="5" stroke-linecap="round"/>
<path d="M707.449 765.211C697.61 761.597 677.284 754.547 663.777 759.24C660.387 760.512 652.703 762.265 649.087 759.097C644.569 755.138 636.003 765.295 647.65 772.09C659.298 778.886 666.885 771.681 665.342 782.468C664.108 791.1 640.207 805.106 628.411 811.029C624.174 812.948 617.174 818.512 623.074 825.42C624.536 827.13 626.858 827.76 629.663 827.645C638.19 827.294 651.193 820.066 658.136 815.382" stroke="black" stroke-width="5" stroke-linecap="round"/>
<path d="M361.669 290.208C396.459 325.816 461.093 341.507 495.162 345.791C497.57 346.095 498.417 349.226 496.464 350.667L406.825 416.784C406.534 416.999 406.197 417.154 405.843 417.233C339.474 432.045 277.598 365.976 253.045 328.442C252.109 327.012 252.806 325.114 254.427 324.57L358.905 289.532C359.879 289.205 360.95 289.473 361.669 290.208Z" stroke="#A0A0A0" stroke-width="5" stroke-linecap="round"/>
<path d="M310.342 344.438C320.902 342.244 343.871 335.414 351.263 325.638" stroke="#A0A0A0" stroke-width="5" stroke-linecap="round"/>
<path d="M340.043 368.198C346.643 368.418 361.824 365.162 369.744 350.378" stroke="#A0A0A0" stroke-width="5" stroke-linecap="round"/>
<path d="M372.384 384.039C382.284 382.719 403.537 375.195 409.345 355.658" stroke="#A0A0A0" stroke-width="5" stroke-linecap="round"/>
<path d="M139.014 566.095C104.223 601.703 39.5889 617.394 5.52006 621.678C3.11231 621.981 2.26489 625.112 4.21855 626.554L93.857 692.671C94.1487 692.886 94.4853 693.04 94.8391 693.12C161.209 707.932 223.085 641.862 247.638 604.329C248.574 602.899 247.877 601.001 246.256 600.457L141.778 565.419C140.803 565.092 139.733 565.36 139.014 566.095Z" stroke="#A0A0A0" stroke-width="5" stroke-linecap="round"/>
<path d="M190.341 620.325C179.781 618.131 156.812 611.302 149.42 601.525" stroke="#A0A0A0" stroke-width="5" stroke-linecap="round"/>
<path d="M160.64 644.086C154.04 644.305 138.86 641.05 130.939 626.266" stroke="#A0A0A0" stroke-width="5" stroke-linecap="round"/>
<path d="M128.298 659.927C118.398 658.607 97.1451 651.082 91.3369 631.546" stroke="#A0A0A0" stroke-width="5" stroke-linecap="round"/>
</svg>
