<svg width="2046" height="1390" viewBox="0 0 2046 1390" fill="none" xmlns="http://www.w3.org/2000/svg">
<path d="M826.104 1235.11C864.342 1117.68 927.193 918.65 945.083 834.791C945.158 834.441 945.368 834.156 945.673 833.967C1023.63 785.478 1107.95 759.1 1136.32 753.836C1136.66 753.772 1137 753.86 1137.29 754.06C1209.52 804.558 1254.21 835.422 1281.83 861.697C1352.08 928.519 1365.45 1056.65 1364.23 1140.05C1364.23 1140.52 1363.96 1140.94 1363.55 1141.17L1334.59 1157.17C1333.88 1157.57 1332.99 1157.23 1332.7 1156.47C1309.06 1092.93 1264.98 1042.78 1236.13 951.654C1236.15 952.392 1235.52 953.041 1234.74 953.022C1156.36 951.019 1153.21 946.505 1082.48 924.892C1040.27 1059.52 919.738 1192.36 859.947 1249.5C859.57 1249.86 859.035 1249.95 858.553 1249.75L826.865 1236.72C826.226 1236.46 825.89 1235.77 826.104 1235.11Z" fill="white"/>
<path d="M1039.22 457.272C1045.82 447.372 1117.59 420.981 1090.98 327.675C1114.16 317.343 1118.01 292.695 1096.7 292.704C1073.51 291.66 1066.75 273.261 1065.34 261.24C1064.43 245.039 1058.13 230.488 1055.58 228.012" stroke="white" stroke-width="5" stroke-linecap="round"/>
<path d="M1057.15 304.475C1060.21 303.111 1061.03 298.287 1058.99 293.699C1056.94 289.111 1052.8 286.498 1049.75 287.861C1046.69 289.225 1045.87 294.049 1047.91 298.637C1049.96 303.225 1054.09 305.838 1057.15 304.475Z" fill="white"/>
<path d="M1030.11 282.725C1032.07 276.844 1039.25 266.256 1052.32 270.945" stroke="white" stroke-width="5" stroke-linecap="round"/>
<path d="M1040.81 374.79C1052.88 382.416 1062.06 381.936 1073.9 367.984" stroke="white" stroke-width="5" stroke-linecap="round"/>
<path d="M947.876 325.166C947.892 329.516 950.276 338.311 959.675 338.695" stroke="white" stroke-width="5" stroke-linecap="round"/>
<path d="M849.758 325.553C863.358 378.746 908.408 402.776 941.811 421.815C958.139 400.083 980.911 355.791 965.868 359.061C950.057 362.495 916.907 330.304 925.338 311.914C935.23 290.338 959.752 304.82 969.977 319.651L972.673 290.811C961.62 276.59 947.303 249.311 978.468 253.962C1009.63 258.612 1042.88 238.344 1055.62 227.63C1074.9 193.839 1097.48 125.318 1033.58 121.555C980.432 118.425 938.129 172.743 916.12 214.189C890.379 218.688 831.214 253.026 849.758 325.553Z" fill="white"/>
<path d="M941.895 417.793C958.014 425.511 967.938 433.512 977.178 455.293" stroke="white" stroke-width="5" stroke-linecap="round"/>
<path d="M957.736 611.836C962.731 647.022 965.84 740.618 938.992 836.483C938.653 837.695 940.025 838.694 941.056 837.972C969.786 817.851 1044.84 775.682 1141.42 750.731C1142.06 750.564 1142.48 749.978 1142.41 749.32C1136.13 696.196 1132.75 584.522 1163.41 555.312C1163.58 555.153 1163.77 555.05 1164 554.998C1227.23 540.401 1361.4 493.898 1400.53 421.253C1400.58 421.145 1400.62 421.034 1400.65 420.914C1403.46 407.781 1405.39 380.962 1391.14 376.344C1390.87 376.253 1390.56 376.269 1390.29 376.38C1296.89 414.145 1192.8 445.426 1059.02 469.151" stroke="white" stroke-width="5" stroke-linecap="round"/>
<path d="M957.736 656.719C893.847 726.417 834.395 752.961 789.074 772.761C757.411 788.903 688.751 800.482 719.47 750.442C851.473 585.701 880.514 557.056 911.535 528.676C929.352 512.376 937.276 502.275 982.157 490.395" stroke="white" stroke-width="5" stroke-linecap="round"/>
<path d="M772.931 1285.06C770.291 1267.9 821.553 1242.82 830.354 1238.2L857.414 1248.76C855.302 1261.96 848.614 1269.66 845.534 1271.86L772.931 1285.06Z" stroke="white" stroke-width="5"/>
<path d="M1347.15 1179.45C1336.59 1177.34 1336.15 1162.29 1337.25 1155.03L1361.01 1143.15C1368.27 1145.13 1387.67 1150.28 1407.21 1155.03C1426.74 1159.78 1424.14 1166.25 1420.41 1168.89L1347.15 1179.45Z" stroke="white" stroke-width="5"/>
<path d="M1210.03 1307.5C1210.03 1353.07 1173.09 1390 1127.53 1390C1081.96 1390 1045.02 1353.07 1045.02 1307.5C1045.02 1261.93 1081.96 1225 1127.53 1225C1173.09 1225 1210.03 1261.93 1210.03 1307.5Z" fill="white"/>
<path d="M644.886 1317.4L1608.51 1140.51" stroke="white" stroke-width="5" stroke-linecap="round"/>
<path d="M1491.03 207.906H1435.59C1430.12 207.906 1425.69 212.339 1425.69 217.807V258.728C1425.69 264.195 1430.12 268.628 1435.59 268.628H1491.03C1496.5 268.628 1500.93 264.195 1500.93 258.728V217.807C1500.93 212.339 1496.5 207.906 1491.03 207.906Z" fill="white"/>
<path d="M1584.75 192.066H1547.79C1542.32 192.066 1537.89 196.499 1537.89 201.967V254.768C1537.89 260.236 1542.32 264.668 1547.79 264.668H1584.75C1590.22 264.668 1594.65 260.236 1594.65 254.768V201.967C1594.65 196.499 1590.22 192.066 1584.75 192.066Z" stroke="#D2D2D2" stroke-width="5"/>
<path d="M1678.47 159.064H1642.83C1637.37 159.064 1632.93 163.497 1632.93 168.965V254.767C1632.93 260.235 1637.37 264.667 1642.83 264.667H1678.47C1683.94 264.667 1688.38 260.235 1688.38 254.767V168.965C1688.38 163.497 1683.94 159.064 1678.47 159.064Z" stroke="#D2D2D2" stroke-width="5"/>
<path d="M1774.84 125.404H1737.88C1730.59 125.404 1724.68 131.314 1724.68 138.605V254.768C1724.68 262.058 1730.59 267.968 1737.88 267.968H1774.84C1782.13 267.968 1788.04 262.058 1788.04 254.768V138.605C1788.04 131.314 1782.13 125.404 1774.84 125.404Z" fill="#D2D2D2"/>
<path d="M1872.52 186.785H1836.88C1831.41 186.785 1826.98 191.218 1826.98 196.685V254.767C1826.98 260.235 1831.41 264.667 1836.88 264.667H1872.52C1877.99 264.667 1882.42 260.235 1882.42 254.767V196.685C1882.42 191.218 1877.99 186.785 1872.52 186.785Z" stroke="#D2D2D2" stroke-width="5"/>
<path d="M1971.52 219.785H1934.56C1929.09 219.785 1924.66 224.218 1924.66 229.685V254.766C1924.66 260.234 1929.09 264.666 1934.56 264.666H1971.52C1976.99 264.666 1981.42 260.234 1981.42 254.766V229.685C1981.42 224.218 1976.99 219.785 1971.52 219.785Z" stroke="#D2D2D2" stroke-width="5"/>
<path d="M1757.03 107.26C1755.97 108.475 1754.1 108.475 1753.04 107.26L1741.67 94.1309C1740.19 92.4212 1741.4 89.7617 1743.66 89.7617H1766.42C1768.67 89.7617 1769.89 92.4212 1768.41 94.1309L1757.03 107.26Z" fill="#D2D2D2"/>
<path d="M1821.04 0H1693C1685.7 0 1679.79 5.91001 1679.79 13.2004V84.4824C1679.79 91.7728 1685.7 97.6828 1693 97.6828H1821.04C1828.33 97.6828 1834.24 91.7728 1834.24 84.4824V13.2004C1834.24 5.91001 1828.33 0 1821.04 0Z" fill="#D2D2D2"/>
<path d="M1811.8 44.8809H1727.32C1724.4 44.8809 1722.04 47.2449 1722.04 50.161C1722.04 53.0772 1724.4 55.4412 1727.32 55.4412H1811.8C1814.72 55.4412 1817.08 53.0772 1817.08 50.161C1817.08 47.2449 1814.72 44.8809 1811.8 44.8809Z" fill="white"/>
<path d="M1706.2 50.1613C1706.2 47.9742 1704.42 46.2012 1702.24 46.2012C1700.05 46.2012 1698.28 47.9742 1698.28 50.1613C1698.28 52.3484 1700.05 54.1214 1702.24 54.1214C1704.42 54.1214 1706.2 52.3484 1706.2 50.1613Z" stroke="white" stroke-width="2"/>
<path d="M1761.64 69.9609H1727.32C1724.4 69.9609 1722.04 72.3249 1722.04 75.2411C1722.04 78.1572 1724.4 80.5212 1727.32 80.5212H1761.64C1764.55 80.5212 1766.92 78.1572 1766.92 75.2411C1766.92 72.3249 1764.55 69.9609 1761.64 69.9609Z" fill="white"/>
<path d="M1736.56 18.4805H1702.24C1699.32 18.4805 1696.96 20.8445 1696.96 23.7606C1696.96 26.6768 1699.32 29.0408 1702.24 29.0408H1736.56C1739.47 29.0408 1741.84 26.6768 1741.84 23.7606C1741.84 20.8445 1739.47 18.4805 1736.56 18.4805Z" fill="white"/>
<path d="M1707.52 75.2411C1707.52 72.3249 1705.15 69.9609 1702.24 69.9609C1699.32 69.9609 1696.96 72.3249 1696.96 75.2411C1696.96 78.1572 1699.32 80.5212 1702.24 80.5212C1705.15 80.5212 1707.52 78.1572 1707.52 75.2411Z" fill="white"/>
<path d="M262.023 1022.98C282.769 1012.32 306.433 1008.72 329.41 1012.76C352.385 1016.79 373.411 1028.23 389.281 1045.33C405.152 1062.43 414.996 1084.24 417.312 1107.45C419.628 1130.67 414.29 1154 402.111 1173.89C389.932 1193.79 371.581 1209.16 349.855 1217.65C328.129 1226.15 304.222 1227.3 281.778 1220.95C259.333 1214.59 239.584 1201.07 225.54 1182.44C211.497 1163.81 203.931 1141.1 203.994 1117.78L310.917 1118.07L262.023 1022.98Z" stroke="#D2D2D2" stroke-width="5"/>
<path d="M184.193 1106.19C184.193 1086.88 189.554 1067.95 199.679 1051.51C209.803 1035.07 224.295 1021.76 241.537 1013.07L288.476 1106.19H184.193Z" fill="#D2D2D2"/>
<path d="M1510.59 375.027C1512.1 378.532 1512.65 386.277 1504.01 390.973C1503.37 391.322 1502.67 391.653 1501.93 391.965C1491.12 396.481 1488.43 389.055 1488.43 384.778V380.421" stroke="white" stroke-width="5" stroke-linecap="round"/>
<path d="M1509.19 364.248C1512.1 366 1516.07 370.447 1510.59 375.026C1510.18 375.368 1509.72 375.71 1509.19 376.053C1502.87 380.218 1493.88 380.764 1488.43 380.42C1487.43 380.356 1486.55 380.264 1485.83 380.158C1482.89 379.336 1478.15 376.142 1482.71 369.944" stroke="white" stroke-width="5" stroke-linecap="round"/>
<path d="M1507.12 351.418C1510.07 352.102 1515.12 354.805 1511.79 360.143C1508.47 365.48 1491.72 368.868 1483.76 369.895C1483.41 369.929 1483.07 369.946 1482.71 369.945C1479.57 369.933 1476.48 368.409 1476.48 364.249C1476.48 358.371 1484.1 356.379 1485.83 356.037" stroke="white" stroke-width="5" stroke-linecap="round"/>
<path d="M1489.71 333.971C1492.65 335.168 1494.45 339.512 1487.39 343.207C1480.32 346.902 1482.03 351.932 1483.76 353.985C1486.53 356.38 1495.49 358.193 1509.19 346.287C1522.91 334.38 1501.41 326.955 1488.43 324.73" stroke="white" stroke-width="5" stroke-linecap="round"/>
<path d="M1459.35 346.285C1465.24 341.666 1476.69 335.199 1475.45 346.285C1474.2 357.371 1466.28 362.195 1462.46 363.222" stroke="white" stroke-width="5" stroke-linecap="round"/>
<path d="M1459.35 390.731C1462.79 387.767 1468.67 378.073 1464.52 363.01" stroke="white" stroke-width="5" stroke-linecap="round"/>
<path d="M1461.87 342.684L1455.39 307.568" stroke="white" stroke-width="5" stroke-linecap="round"/>
<path d="M1485.09 301.629L1489.51 337.525" stroke="white" stroke-width="5" stroke-linecap="round"/>
<path d="M1495.25 393.244C1495.25 403.046 1499.95 415.944 1489.51 419.04C1476.77 422.819 1475.43 411.301 1472.83 399.435L1466.04 363.836" stroke="white" stroke-width="5" stroke-linecap="round"/>
<path d="M1458.03 329.35C1450.77 330.67 1433.74 338.062 1423.71 357.07C1413.68 376.079 1404.13 382.151 1400.61 382.811" stroke="white" stroke-width="5" stroke-linecap="round"/>
<path d="M1402.59 415.812C1421.07 417.792 1459.22 417 1471.89 403.271" stroke="white" stroke-width="5" stroke-linecap="round"/>
<path d="M1458.69 306.909C1493.68 306.909 1522.05 278.541 1522.05 243.547C1522.05 208.554 1493.68 180.186 1458.69 180.186C1423.69 180.186 1395.33 208.554 1395.33 243.547C1395.33 278.541 1423.69 306.909 1458.69 306.909Z" stroke="white" stroke-width="5"/>
<path d="M2042.73 366.374C2017.41 371.568 2029.28 406.43 2010.73 415.706C1988.58 426.78 1980.95 364.435 1983.83 337.972C1984.66 326.369 1998.16 321.209 1999.98 337.972C2001.92 355.779 1979.83 424.829 1954.51 398.184L1937.61 378.623C1932.91 372.834 1923.66 364.791 1915.83 378.623C1908 392.453 1895.53 387.883 1890.28 383.868L1873.76 371.852" stroke="#D2D2D2" stroke-width="5" stroke-linecap="round"/>
<path d="M1885.6 318.593L1754.15 296.327C1752.86 296.107 1752.07 297.725 1753.06 298.609L1813.94 353.442C1814.04 353.53 1814.14 353.602 1814.27 353.65C1819.65 355.768 1840.33 347.624 1851.33 342.697C1852.07 342.365 1852.93 342.771 1853.16 343.553C1855.69 352.431 1858.75 360.639 1860.32 364.552C1860.56 365.127 1861.19 365.446 1861.62 364.988C1864.56 361.74 1864.97 345.211 1864.76 335.724C1864.75 335.046 1865.23 334.472 1865.91 334.342C1874 332.761 1884.94 325.653 1889.6 322.136" stroke="#D2D2D2" stroke-width="5" stroke-linecap="round"/>
<path d="M1852.64 341.768C1838.62 335.314 1803.15 319.152 1773.44 306.127" stroke="#D2D2D2" stroke-width="5" stroke-linecap="round"/>
<path d="M1860.56 365.53L1834.16 349.689" stroke="#D2D2D2" stroke-width="5" stroke-linecap="round"/>
<path d="M1855.28 328.568L1819.64 318.008" stroke="#D2D2D2" stroke-width="5" stroke-linecap="round"/>
<path d="M963.978 496.213C954.519 485.213 941.274 462.024 963.978 457.272C992.359 451.331 1056.38 452.651 1059.02 468.492" stroke="white" stroke-width="5" stroke-linecap="round"/>
<path d="M659.96 843.451C665.094 846.225 680.571 847.283 701.412 829.308C722.253 811.333 726.811 795.309 726.485 789.543" stroke="white" stroke-width="5" stroke-linecap="round"/>
<path d="M634.17 843.013C633.587 847.974 636.882 855.58 654.725 846.32L659.959 843.45L669.062 838.459" stroke="white" stroke-width="5" stroke-linecap="round"/>
<path d="M629.525 827.645C625.333 830.106 618.578 836.464 625.102 842.205C627.07 843.936 630.324 843.984 634.17 843.012C643.071 840.762 655.145 833.047 661.784 828.093" stroke="white" stroke-width="5" stroke-linecap="round"/>
<path d="M707.312 765.211C697.474 761.597 677.148 754.547 663.64 759.24C660.25 760.512 652.566 762.265 648.95 759.097C644.432 755.138 635.866 765.295 647.513 772.09C659.161 778.886 666.749 771.681 665.205 782.468C663.971 791.1 640.071 805.106 628.275 811.029C624.037 812.948 617.037 818.512 622.938 825.42C624.399 827.13 626.721 827.76 629.526 827.645C638.054 827.294 651.056 820.066 657.999 815.382" stroke="white" stroke-width="5" stroke-linecap="round"/>
<path d="M361.533 290.208C396.322 325.816 460.957 341.507 495.026 345.791C497.433 346.095 498.281 349.226 496.327 350.667L406.689 416.784C406.397 416.999 406.06 417.154 405.706 417.233C339.338 432.045 277.461 365.976 252.908 328.442C251.972 327.012 252.669 325.114 254.29 324.57L358.769 289.532C359.743 289.205 360.813 289.473 361.533 290.208Z" stroke="#D2D2D2" stroke-width="5" stroke-linecap="round"/>
<path d="M310.205 344.437C320.766 342.243 343.734 335.413 351.126 325.637" stroke="#D2D2D2" stroke-width="5" stroke-linecap="round"/>
<path d="M339.906 368.199C346.506 368.419 361.687 365.163 369.607 350.379" stroke="#D2D2D2" stroke-width="5" stroke-linecap="round"/>
<path d="M372.247 384.039C382.147 382.719 403.4 375.195 409.208 355.658" stroke="#D2D2D2" stroke-width="5" stroke-linecap="round"/>
<path d="M138.877 566.095C104.087 601.703 39.4522 617.394 5.38334 621.678C2.97559 621.981 2.12818 625.112 4.08183 626.554L93.7203 692.671C94.012 692.886 94.3486 693.04 94.7024 693.12C161.072 707.932 222.949 641.862 247.501 604.329C248.437 602.899 247.74 601.001 246.119 600.457L141.641 565.419C140.667 565.092 139.596 565.36 138.877 566.095Z" stroke="#D2D2D2" stroke-width="5" stroke-linecap="round"/>
<path d="M190.204 620.325C179.644 618.131 156.675 611.302 149.283 601.525" stroke="#D2D2D2" stroke-width="5" stroke-linecap="round"/>
<path d="M160.504 644.086C153.903 644.305 138.723 641.05 130.803 626.266" stroke="#D2D2D2" stroke-width="5" stroke-linecap="round"/>
<path d="M128.161 659.928C118.261 658.608 97.0084 651.083 91.2002 631.547" stroke="#D2D2D2" stroke-width="5" stroke-linecap="round"/>
</svg>
