<svg width="1467" height="1393" viewBox="0 0 1467 1393" fill="none" xmlns="http://www.w3.org/2000/svg">
<path d="M62.9636 639.178C71.1639 639.178 77.8116 632.531 77.8116 624.33C77.8116 616.13 71.1639 609.482 62.9636 609.482C54.7633 609.482 48.1156 616.13 48.1156 624.33C48.1156 632.531 54.7633 639.178 62.9636 639.178Z" stroke="#D2D2D2" stroke-width="5"/>
<path d="M92.0588 625.843C122.008 622.761 169 626.406 174.555 649.573C180.109 672.739 158.899 681.212 147.601 682.552C104.583 689.389 47.5439 686.172 47.5439 649.573" stroke="#D2D2D2" stroke-width="5" stroke-linecap="round"/>
<path d="M81.238 660.88C83.1304 660.88 84.6645 659.346 84.6645 657.454C84.6645 655.561 83.1304 654.027 81.238 654.027C79.3457 654.027 77.8116 655.561 77.8116 657.454C77.8116 659.346 79.3457 660.88 81.238 660.88Z" stroke="#D2D2D2" stroke-width="5"/>
<path d="M114.36 657.454C114.36 659.118 112.81 660.88 110.363 660.88C107.916 660.88 106.365 659.118 106.365 657.454C106.365 655.79 107.916 654.027 110.363 654.027C112.81 654.027 114.36 655.79 114.36 657.454Z" stroke="#D2D2D2" stroke-width="5"/>
<path d="M139.488 660.88C141.38 660.88 142.914 659.346 142.914 657.454C142.914 655.561 141.38 654.027 139.488 654.027C137.595 654.027 136.061 655.561 136.061 657.454C136.061 659.346 137.595 660.88 139.488 660.88Z" stroke="#D2D2D2" stroke-width="5"/>
<path d="M1189.7 221.152C1197.27 221.152 1203.4 215.016 1203.4 207.446C1203.4 199.877 1197.27 193.74 1189.7 193.74C1182.13 193.74 1175.99 199.877 1175.99 207.446C1175.99 215.016 1182.13 221.152 1189.7 221.152Z" stroke="#D2D2D2" stroke-width="5"/>
<path d="M1216.62 195.453C1226.67 195.453 1255.37 195.453 1268.86 195.453C1279.8 195.453 1285.06 197.872 1285.06 214.803C1285.06 231.254 1284.93 252.563 1285.06 261.163C1285.16 267.21 1282.15 273.902 1272.11 274.869C1262.06 275.837 1221.75 275.272 1202.85 274.869C1195.83 274.869 1183.41 270.89 1183.41 254.713V236.572" stroke="#D2D2D2" stroke-width="5" stroke-linecap="round"/>
<path d="M1209.68 224.006L1234.81 241.138" stroke="#D2D2D2" stroke-width="5" stroke-linecap="round"/>
<path d="M1234.81 241.139L1280.5 198.879" stroke="#D2D2D2" stroke-width="5" stroke-linecap="round"/>
<path d="M1246.39 230.859L1258.88 243.423L1271.36 255.987" stroke="#D2D2D2" stroke-width="5" stroke-linecap="round"/>
<path d="M1200.55 255.987L1218.97 230.859" stroke="#D2D2D2" stroke-width="5" stroke-linecap="round"/>
<path d="M1290.14 1077.75C1286.34 1081.55 1283.07 1084.82 1280.82 1087.08C1274.94 1092.96 1268.77 1089.53 1266.42 1087.08L1228.93 1050.96C1223.39 1045.81 1218.71 1040.73 1197.79 1020.77C1195.65 1018.63 1192.26 1013.15 1195.81 1008.4C1199.37 1003.65 1219.37 978.71 1228.93 966.834C1231.82 962.636 1238.12 957.641 1246.16 965.111C1253.08 971.544 1276.8 993.811 1297.06 1010.74" stroke="#D2D2D2" stroke-width="5" stroke-linecap="round"/>
<path d="M1228.53 968.119C1229.71 989.786 1237.66 1024.66 1278.78 1037.79" stroke="#D2D2D2" stroke-width="5" stroke-linecap="round"/>
<path d="M1332.82 1039.47C1330.93 1034.68 1316.46 1029.1 1310.99 1039.47C1305.35 1050.16 1309.66 1059.17 1313.33 1060.94C1318.01 1063.2 1324.89 1064.38 1332.15 1051.39" stroke="#D2D2D2" stroke-width="5" stroke-linecap="round"/>
<path d="M1334.02 1032.8C1333.59 1035.3 1333.16 1036.35 1332.82 1039.47C1332.37 1043.52 1332.08 1047.78 1332.15 1051.39C1332.29 1057.74 1333.55 1062.12 1337.11 1060C1344.26 1055.76 1348.12 1052.29 1349.15 1048.74C1350.86 1042.78 1350.87 1031.36 1341.23 1023.9C1329.61 1014.89 1316.49 1015.13 1306.18 1023.9C1295.94 1032.6 1293.14 1046.53 1293.7 1053.76C1294.31 1061.66 1300.21 1078.64 1319.46 1078.9C1338.71 1079.17 1349.14 1068.79 1350.74 1063.93" stroke="#D2D2D2" stroke-width="5" stroke-linecap="round"/>
<path d="M319.376 896.813C315.27 880.961 301.635 851.727 279.952 861.609C258.269 871.491 270.917 889.195 279.952 896.813C286.032 900.931 299.103 905.336 302.744 890.019C306.385 874.702 291.04 868.402 286.728 875.197C284.454 877.873 281.885 884.584 289.808 890.019" stroke="#D2D2D2" stroke-width="5" stroke-linecap="round"/>
<path d="M413.277 112.842L440.327 126.866C441.934 127.699 443.848 127.688 445.445 126.837L472.333 112.504C472.698 112.309 473.129 112.618 473.061 113.027L468.083 143.087C467.787 144.873 468.389 146.69 469.692 147.946L491.632 169.088C491.931 169.376 491.77 169.881 491.36 169.943L461.233 174.497C459.443 174.767 457.901 175.901 457.109 177.529L443.781 204.928C443.6 205.301 443.07 205.304 442.885 204.934L429.244 177.688C428.433 176.07 426.878 174.954 425.086 174.704L394.909 170.495C394.498 170.438 394.332 169.935 394.627 169.644L416.323 148.251C417.612 146.98 418.193 145.156 417.877 143.374L412.554 113.374C412.482 112.965 412.909 112.652 413.277 112.842Z" stroke="#D2D2D2" stroke-width="5"/>
<path d="M768.814 639.082V736.165" stroke="white" stroke-width="5" stroke-linecap="round"/>
<path d="M841.911 650.504V743.018" stroke="white" stroke-width="5" stroke-linecap="round"/>
<path d="M670.94 1070.91C646.803 1073.92 590.297 1085 577.92 1107.54C574.207 1114.31 569.899 1130.76 582.375 1142.48C594.853 1154.2 617.653 1151.12 627.493 1148.12L684.865 1125.01" stroke="white" stroke-width="5" stroke-linecap="round"/>
<path d="M999.871 900.82C954.833 902.269 755.914 998.57 662.084 1046.54C654.094 1099.4 687.812 1137.35 705.67 1149.72C799.197 1122.57 991.153 1067.54 1010.77 1064.64C1030.38 1061.75 1049.81 1047.75 1057.08 1041.11C1107.93 981.736 1070.39 931.292 1045.27 913.491C1027.39 900.819 1011.95 900.43 999.871 900.82Z" fill="white"/>
<path d="M577.996 887.349C609.907 889.477 749.112 943.428 815.071 971.704L664.226 1047.08C596.719 1066.88 555.248 1060.36 542.583 1056.09C469.477 1020.87 498.12 933.975 527.166 901.788C545.886 885.855 566.563 886.586 577.996 887.349Z" fill="white"/>
<path d="M933.154 1081.19C953.098 1090.78 963.881 1103.33 969.349 1113.63C981.066 1140.45 960.027 1156.57 936.006 1148.99C922.732 1144.8 919.603 1141.99 912.572 1136.16C909.005 1133.2 892.343 1117.72 873.32 1099.44" stroke="white" stroke-width="5" stroke-linecap="round"/>
<path d="M550.093 622.079L565.561 903.177C565.853 908.479 570.237 912.628 575.546 912.628H1005.52C1011.04 912.628 1015.52 908.151 1015.52 902.628V615.524C1015.52 609.949 1010.96 605.45 1005.38 605.525L559.943 611.53C554.258 611.607 549.78 616.402 550.093 622.079Z" fill="white"/>
<rect x="563.226" y="916.625" width="452.293" height="21.7009" rx="10" fill="white"/>
<path d="M843.053 484.891C882.838 484.32 970.403 514.586 1005.24 609.956" stroke="white" stroke-width="5" stroke-linecap="round"/>
<path d="M755.679 484.32C664.878 502.024 621.476 540.857 587.211 615.668" stroke="white" stroke-width="5" stroke-linecap="round"/>
<path d="M1059.49 574.647L1081.76 537.527" stroke="white" stroke-width="5" stroke-linecap="round"/>
<path d="M1081.76 584.926L1112.03 559.799" stroke="white" stroke-width="5" stroke-linecap="round"/>
<path d="M1086.33 602.06C1092.23 604.344 1105.63 606.514 1112.03 596.92" stroke="white" stroke-width="5" stroke-linecap="round"/>
<path d="M502.121 567.698L467.856 532.291" stroke="white" stroke-width="5" stroke-linecap="round"/>
<path d="M536.956 561.987L516.398 508.877" stroke="white" stroke-width="5" stroke-linecap="round"/>
<path d="M493.555 587.685L467.856 577.977" stroke="white" stroke-width="5" stroke-linecap="round"/>
<path d="M1028.08 674.016C1049.21 707.138 1073.2 746.542 1028.08 820.685" stroke="white" stroke-width="5" stroke-linecap="round"/>
<path d="M843.624 487.747C848.764 472.899 844.082 462.907 839.513 461.004C812.102 486.131 770.527 476.804 755.108 461.575C749.625 466.6 752.823 481.465 755.107 486.034C784.803 518.928 827.063 500.501 843.624 487.747Z" fill="white"/>
<path d="M721.985 579.119L733.072 562.103C740.898 550.091 756.13 545.295 769.427 550.656L797.377 561.926C809.316 566.741 822.996 563.401 831.374 553.627L858.472 522.012" stroke="white" stroke-width="5" stroke-linecap="round"/>
<path d="M543.238 695.048C534.672 715.226 524.507 764.148 552.376 798.413" stroke="white" stroke-width="5" stroke-linecap="round"/>
<path d="M922.368 254.298C909.805 299.413 903.523 303.41 885.248 323.398C885.248 303.645 881.855 270.488 881.855 256.682C822.018 256.682 771.52 232.256 753.75 220.043C754.386 261.461 715.557 288.543 715.557 288.543C715.557 288.543 721.127 305.269 724.309 342.706C726.856 372.654 719.535 366.866 715.557 360.229C704.099 323.271 685.32 333.147 677.363 342.706C579.723 184.056 729.878 153.401 758.523 156.322C780.166 137.842 810.349 123.361 831.567 121.237C908.091 113.577 942.74 181.145 922.368 254.298Z" fill="white"/>
<path d="M716.895 388.465C727.174 451.221 796.169 496.347 845.958 445.51C895.747 394.674 885.783 301.62 880.464 258.197" stroke="white" stroke-width="5" stroke-linecap="round"/>
<path d="M676.234 338.816C669.953 354.235 675.846 388.403 716.895 388.403" stroke="white" stroke-width="5" stroke-linecap="round"/>
<path d="M694.339 347.285C693.43 350.585 694.157 358.402 704.331 363.275" stroke="white" stroke-width="5" stroke-linecap="round"/>
<path d="M879.08 380.408C892.478 374.822 901.923 354.138 898.29 321.016" stroke="white" stroke-width="5" stroke-linecap="round"/>
<path d="M803.698 418.099C816.833 421.526 816.002 412.096 825.97 403.822" stroke="white" stroke-width="5" stroke-linecap="round"/>
<circle cx="842.909" cy="338.318" r="8.56615" fill="white"/>
<circle cx="767.526" cy="339.461" r="8.56615" fill="white"/>
<path d="M748.875 319.874C750.678 314.567 758.455 304.748 775.144 307.932" stroke="white" stroke-width="5" stroke-linecap="round"/>
<path d="M828.826 309.594C832.806 306.146 843.632 301.32 855.095 309.594" stroke="white" stroke-width="5" stroke-linecap="round"/>
<path d="M801.193 333.58C799.863 344.858 798.959 367.728 805.982 368.987" stroke="white" stroke-width="5" stroke-linecap="round"/>
<path d="M1130.3 851.619C1282.78 893.879 1556.67 942.42 1432.4 798.509C1393.19 759.866 1335.32 714.561 1242.24 674.586" stroke="#D2D2D2" stroke-width="5" stroke-linecap="round"/>
<path d="M1295.35 556.36C1390.14 495.635 1542.85 370.189 1395.28 354.199C1247.72 338.209 1112.98 393.603 1064.06 423.299" stroke="#D2D2D2" stroke-width="5" stroke-linecap="round"/>
<path d="M928.144 467.62C990.962 332.275 1092.61 51.7622 996.673 12.4722C876.747 -36.6404 721.414 104.987 594.635 443.064" stroke="#D2D2D2" stroke-width="5" stroke-linecap="round"/>
<path d="M454.927 351.028C314.442 274.123 27.6473 155.834 4.3474 297.918C-18.9525 440.002 265.71 558.519 410.954 600.017" stroke="#D2D2D2" stroke-width="5" stroke-linecap="round"/>
<path d="M448.247 674.586C243.23 779.093 -13.652 923.627 128.637 998.957C186.886 1029.8 335.938 1010.95 404.467 982.967" stroke="#D2D2D2" stroke-width="5" stroke-linecap="round"/>
<ellipse cx="783.661" cy="1358.74" rx="282.683" ry="34.2646" fill="#D2D2D2"/>
</svg>
