<svg width="31" height="32" viewBox="0 0 31 32" fill="none" xmlns="http://www.w3.org/2000/svg">
<path d="M1.92527 1.38044L19.6313 0.0727455C21.8062 -0.113915 22.3651 0.0119476 23.7325 1.00605L29.3846 4.98778C30.3169 5.67256 30.6272 5.85922 30.6272 6.60479V28.4419C30.6272 29.8104 30.1302 30.62 28.3905 30.7437L7.82907 31.9885C6.52352 32.0503 5.90167 31.8637 5.21796 30.9922L1.05596 25.5802C0.309323 24.5839 0 23.8384 0 22.9669V3.55636C0 2.43747 0.49705 1.50416 1.92527 1.38044Z" fill="white"/>
<path fill-rule="evenodd" clip-rule="evenodd" d="M19.6313 0.0727455L1.92527 1.38044C0.49705 1.50416 0 2.43747 0 3.55636V22.9669C0 23.8384 0.309323 24.5839 1.05596 25.5802L5.21796 30.9922C5.90167 31.8637 6.52352 32.0503 7.82907 31.9885L28.3905 30.7437C30.1291 30.62 30.6272 29.8104 30.6272 28.4419V6.60479C30.6272 5.89762 30.3478 5.69389 29.5254 5.09018C29.4781 5.05609 29.4308 5.02196 29.3836 4.98778L23.7325 1.00605C22.3651 0.0119476 21.8062 -0.113915 19.6313 0.0727455ZM8.29412 6.24747C6.61525 6.36054 6.23446 6.38614 5.28089 5.61069L2.85644 3.68223C2.61005 3.43263 2.73378 3.12118 3.35455 3.05931L20.3759 1.81562C21.8051 1.69082 22.5496 2.18894 23.1086 2.62413L26.0279 4.73926C26.1527 4.80219 26.4631 5.17444 26.0898 5.17444L8.51172 6.23254L8.29412 6.24747ZM6.33686 28.2553V9.71722C6.33686 8.90765 6.58538 8.53433 7.32989 8.4714L27.5191 7.28957C28.2039 7.22771 28.5132 7.66289 28.5132 8.4714V26.8857C28.5132 27.6953 28.3884 28.3801 27.2706 28.4419L7.95067 29.5619C6.83284 29.6238 6.33686 29.2515 6.33686 28.2553ZM25.4082 10.7113C25.5319 11.2713 25.4082 11.8313 24.8482 11.8953L23.9171 12.0798V25.7668C23.1086 26.202 22.3641 26.4505 21.7422 26.4505C20.7481 26.4505 20.4996 26.1391 19.7551 25.2068L13.6657 15.6264V24.8954L15.592 25.3316C15.592 25.3316 15.592 26.4516 14.0379 26.4516L9.75327 26.7001C9.62848 26.4505 9.75327 25.8287 10.1874 25.705L11.3063 25.3946V13.139L9.75327 13.0131C9.62848 12.4531 9.93887 11.6446 10.8092 11.5817L15.4064 11.2724L21.7422 20.9766V12.3913L20.1273 12.2057C20.0025 11.5198 20.4996 11.0217 21.1204 10.9609L25.4082 10.7113Z" fill="black"/>
</svg>
