<svg width="28" height="29" viewBox="0 0 28 29" fill="none" xmlns="http://www.w3.org/2000/svg">
<path d="M1.71115 1.22641L17.448 0.0648595C19.3805 -0.101266 19.8777 0.0100118 21.0923 0.894374L26.1157 4.43317C26.9445 5.0417 27.2208 5.20738 27.2208 5.87076V25.2798C27.2208 26.4962 26.7787 27.2156 25.233 27.3256L6.95796 28.4317C5.79767 28.4872 5.24546 28.3214 4.63781 27.5468L0.938516 22.7361C0.275651 21.8506 0 21.1882 0 20.4131V3.16103C0 2.1663 0.442212 1.33656 1.71115 1.22641Z" fill="white"/>
<path fill-rule="evenodd" clip-rule="evenodd" d="M17.448 0.0648633L1.71115 1.22641C0.442212 1.33655 0 2.16629 0 3.16102V20.4131C0 21.1882 0.275651 21.8506 0.938516 22.7361L4.63781 27.5468C5.24546 28.3214 5.79767 28.4872 6.95796 28.4317L25.233 27.3256C26.7787 27.2156 27.2208 26.4962 27.2208 25.2798V5.87076C27.2208 5.24198 26.9726 5.06034 26.2408 4.52489C26.2006 4.49543 26.1589 4.4649 26.1157 4.43317L21.0923 0.894369C19.8777 0.0100157 19.3805 -0.101271 17.448 0.0648633ZM7.3723 5.55255C5.88025 5.65354 5.54123 5.67649 4.69391 4.98656L2.5392 3.27245C2.31944 3.05079 2.42967 2.7743 2.98141 2.71945L18.1106 1.61343C19.3802 1.50261 20.0426 1.94569 20.5398 2.33258L23.1348 4.2128C23.2452 4.26787 23.5209 4.59922 23.1894 4.59922L7.56491 5.53958L7.3723 5.55255ZM5.63198 25.1136V8.63608C5.63198 7.91731 5.85285 7.58535 6.51504 7.52953L24.4592 6.47931C25.0678 6.42402 25.3434 6.81135 25.3434 7.52953V23.8965C25.3434 24.6159 25.2328 25.225 24.2386 25.2798L7.06724 26.2757C6.0735 26.3304 5.63198 25.9992 5.63198 25.1136ZM22.5834 9.52008C22.6936 10.0182 22.5834 10.516 22.0855 10.5719L21.2582 10.7371V22.9019C20.5398 23.2889 19.8774 23.5101 19.3255 23.5101C18.4417 23.5101 18.2204 23.2334 17.5584 22.4044L12.1467 13.889V22.1279L13.8591 22.5153C13.8591 22.5153 13.8591 23.5101 12.4775 23.5101L8.66861 23.7316C8.55796 23.5101 8.66861 22.9576 9.05497 22.8469L10.0489 22.5708V11.6775L8.66888 11.5666C8.55822 11.0685 8.83384 10.3502 9.60745 10.2945L13.6934 10.0184L19.3255 18.6447V11.0136L17.8895 10.8485C17.7793 10.2395 18.2204 9.79721 18.7726 9.74237L22.5834 9.52008Z" fill="black"/>
</svg>
